<svg id="Layer_1" data-name="Layer 1" xmlns="http://www.w3.org/2000/svg" viewBox="0 0 203.94 194.32"><defs><style>.cls-1{fill:#fff;}</style></defs><title>favorite-star</title><path class="cls-1" d="M162.7,193.82a3.13,3.13,0,0,1-1.49-.37l-57.28-30.12a4.24,4.24,0,0,0-3.92,0L42.73,193.45a3.13,3.13,0,0,1-1.49.37,3.24,3.24,0,0,1-2.46-1.16,3.14,3.14,0,0,1-.7-2.59L49,126.28a4.2,4.2,0,0,0-1.21-3.72L1.47,77.39a3.21,3.21,0,0,1,1.78-5.47l64-9.3a4.23,4.23,0,0,0,3.17-2.3l28.64-58a3.2,3.2,0,0,1,5.74,0l28.64,58a4.23,4.23,0,0,0,3.17,2.3l64,9.3a3.21,3.21,0,0,1,1.78,5.47l-46.34,45.17a4.2,4.2,0,0,0-1.21,3.72l10.94,63.79a3.14,3.14,0,0,1-.7,2.59A3.24,3.24,0,0,1,162.7,193.82Z"/><path d="M102,1a2.66,2.66,0,0,1,2.43,1.51l28.64,58a4.68,4.68,0,0,0,3.54,2.57l64,9.31a2.71,2.71,0,0,1,1.5,4.61L155.78,122.2a4.69,4.69,0,0,0-1.35,4.17l10.94,63.78a2.66,2.66,0,0,1-.59,2.19,2.78,2.78,0,0,1-2.08,1,2.71,2.71,0,0,1-1.26-.32l-57.28-30.11a4.71,4.71,0,0,0-4.38,0L42.5,193a2.71,2.71,0,0,1-1.26.32,2.78,2.78,0,0,1-2.08-1,2.65,2.65,0,0,1-.58-2.19l10.93-63.78a4.69,4.69,0,0,0-1.35-4.17L1.82,77a2.71,2.71,0,0,1,1.5-4.61l64-9.31a4.68,4.68,0,0,0,3.54-2.57l28.64-58A2.66,2.66,0,0,1,102,1m0-1a3.66,3.66,0,0,0-3.32,2.07L70,60.1a3.71,3.71,0,0,1-2.79,2l-64,9.31a3.71,3.71,0,0,0-2.06,6.32l46.34,45.17a3.68,3.68,0,0,1,1.07,3.28L37.59,190A3.7,3.7,0,0,0,43,193.89l57.28-30.12a3.73,3.73,0,0,1,3.44,0L161,193.89a3.7,3.7,0,0,0,5.38-3.91L155.41,126.2a3.71,3.71,0,0,1,1.07-3.28l46.34-45.17a3.71,3.71,0,0,0-2.06-6.32l-64-9.31a3.71,3.71,0,0,1-2.79-2l-28.64-58A3.66,3.66,0,0,0,102,0Z"/></svg>